<svg xmlns="http://www.w3.org/2000/svg" xmlns:xlink="http://www.w3.org/1999/xlink" width="1920" zoomAndPan="magnify" viewBox="0 0 1440 809.999993" height="1080" preserveAspectRatio="xMidYMid meet" version="1.0"><defs><clipPath id="ec260fc381"><path d="M 382.332031 66.84375 L 1058.226562 66.84375 L 1058.226562 742.738281 L 382.332031 742.738281 Z M 382.332031 66.84375 " clip-rule="nonzero"/></clipPath><clipPath id="34aff60e10"><path d="M 651.3125 499 L 788.757812 499 L 788.757812 591 L 651.3125 591 Z M 651.3125 499 " clip-rule="nonzero"/></clipPath><clipPath id="54d30f402b"><path d="M 1058.160156 404.675781 C 1058.160156 591.269531 906.886719 742.5625 720.273438 742.5625 C 533.667969 742.5625 382.394531 591.269531 382.394531 404.675781 C 382.394531 218.0625 533.667969 66.789062 720.273438 66.789062 C 906.886719 66.789062 1058.160156 218.0625 1058.160156 404.675781 " clip-rule="nonzero"/></clipPath><clipPath id="00771c6c28"><path d="M 651.3125 517 L 788.757812 517 L 788.757812 567 L 651.3125 567 Z M 651.3125 517 " clip-rule="nonzero"/></clipPath><clipPath id="9fbf86cab7"><path d="M 1058.160156 404.675781 C 1058.160156 591.269531 906.886719 742.5625 720.273438 742.5625 C 533.667969 742.5625 382.394531 591.269531 382.394531 404.675781 C 382.394531 218.0625 533.667969 66.789062 720.273438 66.789062 C 906.886719 66.789062 1058.160156 218.0625 1058.160156 404.675781 " clip-rule="nonzero"/></clipPath><clipPath id="b333c0068a"><path d="M 573 151 L 868 151 L 868 552 L 573 552 Z M 573 151 " clip-rule="nonzero"/></clipPath><clipPath id="834d3a8f13"><path d="M 1058.160156 404.675781 C 1058.160156 591.269531 906.886719 742.5625 720.273438 742.5625 C 533.667969 742.5625 382.394531 591.269531 382.394531 404.675781 C 382.394531 218.0625 533.667969 66.789062 720.273438 66.789062 C 906.886719 66.789062 1058.160156 218.0625 1058.160156 404.675781 " clip-rule="nonzero"/></clipPath><clipPath id="77acc50638"><path d="M 854 324 L 885.210938 324 L 885.210938 412 L 854 412 Z M 854 324 " clip-rule="nonzero"/></clipPath><clipPath id="433bc6654d"><path d="M 1058.160156 404.675781 C 1058.160156 591.269531 906.886719 742.5625 720.273438 742.5625 C 533.667969 742.5625 382.394531 591.269531 382.394531 404.675781 C 382.394531 218.0625 533.667969 66.789062 720.273438 66.789062 C 906.886719 66.789062 1058.160156 218.0625 1058.160156 404.675781 " clip-rule="nonzero"/></clipPath><clipPath id="a08ffefbb9"><path d="M 859 332 L 880.390625 332 L 880.390625 398.402344 L 859 398.402344 Z M 859 332 " clip-rule="nonzero"/></clipPath><clipPath id="4b542b0097"><path d="M 1058.160156 404.675781 C 1058.160156 591.269531 906.886719 742.5625 720.273438 742.5625 C 533.667969 742.5625 382.394531 591.269531 382.394531 404.675781 C 382.394531 218.0625 533.667969 66.789062 720.273438 66.789062 C 906.886719 66.789062 1058.160156 218.0625 1058.160156 404.675781 " clip-rule="nonzero"/></clipPath><clipPath id="a0b73ae1e3"><path d="M 863.511719 350.175781 L 872 350.175781 L 872 371.875 L 863.511719 371.875 Z M 863.511719 350.175781 " clip-rule="nonzero"/></clipPath><clipPath id="f51cb75667"><path d="M 1058.160156 404.675781 C 1058.160156 591.269531 906.886719 742.5625 720.273438 742.5625 C 533.667969 742.5625 382.394531 591.269531 382.394531 404.675781 C 382.394531 218.0625 533.667969 66.789062 720.273438 66.789062 C 906.886719 66.789062 1058.160156 218.0625 1058.160156 404.675781 " clip-rule="nonzero"/></clipPath><clipPath id="05f00823cb"><path d="M 558 324 L 588.621094 324 L 588.621094 412 L 558 412 Z M 558 324 " clip-rule="nonzero"/></clipPath><clipPath id="4b72f39b93"><path d="M 1058.160156 404.675781 C 1058.160156 591.269531 906.886719 742.5625 720.273438 742.5625 C 533.667969 742.5625 382.394531 591.269531 382.394531 404.675781 C 382.394531 218.0625 533.667969 66.789062 720.273438 66.789062 C 906.886719 66.789062 1058.160156 218.0625 1058.160156 404.675781 " clip-rule="nonzero"/></clipPath><clipPath id="061905e5ec"><path d="M 563 332 L 583.796875 332 L 583.796875 398.402344 L 563 398.402344 Z M 563 332 " clip-rule="nonzero"/></clipPath><clipPath id="f5731f81b5"><path d="M 1058.160156 404.675781 C 1058.160156 591.269531 906.886719 742.5625 720.273438 742.5625 C 533.667969 742.5625 382.394531 591.269531 382.394531 404.675781 C 382.394531 218.0625 533.667969 66.789062 720.273438 66.789062 C 906.886719 66.789062 1058.160156 218.0625 1058.160156 404.675781 " clip-rule="nonzero"/></clipPath><clipPath id="4bf83fcc7e"><path d="M 571.742188 350.175781 L 580 350.175781 L 580 371.875 L 571.742188 371.875 Z M 571.742188 350.175781 " clip-rule="nonzero"/></clipPath><clipPath id="1de2ffc05c"><path d="M 1058.160156 404.675781 C 1058.160156 591.269531 906.886719 742.5625 720.273438 742.5625 C 533.667969 742.5625 382.394531 591.269531 382.394531 404.675781 C 382.394531 218.0625 533.667969 66.789062 720.273438 66.789062 C 906.886719 66.789062 1058.160156 218.0625 1058.160156 404.675781 " clip-rule="nonzero"/></clipPath><clipPath id="e052c08b1f"><path d="M 416 577 L 1024 577 L 1024 742.738281 L 416 742.738281 Z M 416 577 " clip-rule="nonzero"/></clipPath><clipPath id="6dad4408aa"><path d="M 1058.160156 404.675781 C 1058.160156 591.269531 906.886719 742.5625 720.273438 742.5625 C 533.667969 742.5625 382.394531 591.269531 382.394531 404.675781 C 382.394531 218.0625 533.667969 66.789062 720.273438 66.789062 C 906.886719 66.789062 1058.160156 218.0625 1058.160156 404.675781 " clip-rule="nonzero"/></clipPath><clipPath id="6de1e90c38"><path d="M 556 102 L 882 102 L 882 371.875 L 556 371.875 Z M 556 102 " clip-rule="nonzero"/></clipPath><clipPath id="21aa4d6c97"><path d="M 1058.160156 404.675781 C 1058.160156 591.269531 906.886719 742.5625 720.273438 742.5625 C 533.667969 742.5625 382.394531 591.269531 382.394531 404.675781 C 382.394531 218.0625 533.667969 66.789062 720.273438 66.789062 C 906.886719 66.789062 1058.160156 218.0625 1058.160156 404.675781 " clip-rule="nonzero"/></clipPath></defs><g clip-path="url(#ec260fc381)"><path fill="#ee292d" d="M 1058.160156 404.675781 C 1058.160156 591.269531 906.886719 742.5625 720.273438 742.5625 C 533.667969 742.5625 382.394531 591.269531 382.394531 404.675781 C 382.394531 218.0625 533.667969 66.789062 720.273438 66.789062 C 906.886719 66.789062 1058.160156 218.0625 1058.160156 404.675781 " fill-opacity="1" fill-rule="nonzero"/></g><g clip-path="url(#34aff60e10)"><g clip-path="url(#54d30f402b)"><path fill="#f9ab7b" d="M 651.839844 590.1875 L 788.710938 590.1875 L 788.710938 499.574219 L 651.839844 499.574219 Z M 651.839844 590.1875 " fill-opacity="1" fill-rule="nonzero"/></g></g><g clip-path="url(#00771c6c28)"><g clip-path="url(#9fbf86cab7)"><path fill="#ce8d65" d="M 704.710938 566.734375 C 686.402344 566.734375 668.496094 562.203125 651.839844 551.605469 L 651.839844 519.136719 C 674.242188 539.53125 697.65625 551.53125 716.476562 551.53125 C 739.734375 551.53125 765.296875 539.097656 788.710938 517.667969 L 788.710938 540.339844 C 761.839844 556.070312 732.800781 566.734375 704.710938 566.734375 " fill-opacity="1" fill-rule="nonzero"/></g></g><g clip-path="url(#b333c0068a)"><g clip-path="url(#834d3a8f13)"><path fill="#f9ab7b" d="M 867.289062 351.296875 C 857.144531 462.820312 778.566406 551.53125 716.476562 551.53125 C 663.25 551.53125 573.265625 455.546875 573.265625 344.957031 C 573.265625 234.367188 626.183594 151.050781 716.476562 151.050781 C 806.769531 151.050781 867.289062 240.703125 867.289062 351.296875 " fill-opacity="1" fill-rule="nonzero"/></g></g><g clip-path="url(#77acc50638)"><g clip-path="url(#433bc6654d)"><path fill="#f9ab7b" d="M 858.414062 337.355469 C 858.574219 334.050781 867.835938 327.492188 870.367188 326.242188 C 889.882812 316.578125 884.835938 356.816406 883.6875 365.640625 C 881.332031 383.8125 873.882812 404.730469 854.929688 411.164062 L 858.414062 337.355469 " fill-opacity="1" fill-rule="nonzero"/></g></g><g clip-path="url(#a08ffefbb9)"><g clip-path="url(#4b542b0097)"><path fill="#d69369" d="M 864.6875 398.082031 C 863.304688 398.082031 861.84375 397.441406 860.316406 396.007812 C 859.414062 395.171875 860.007812 392.589844 861.035156 392.324219 C 865.214844 391.234375 868.699219 390.980469 871.628906 384.5 C 873.84375 379.636719 875.707031 374.089844 876.914062 368.46875 C 878.347656 361.761719 879.382812 354.667969 878.667969 347.90625 C 878.007812 341.714844 876.3125 333.511719 871.59375 333.511719 C 871.5625 333.511719 871.527344 333.511719 871.488281 333.511719 C 871.253906 333.484375 871.007812 333.464844 870.78125 333.464844 C 867.503906 333.464844 864.960938 336.609375 863.144531 342.894531 L 863.039062 342.882812 C 863.417969 335.3125 867.570312 332.242188 871.601562 332.242188 C 872.074219 332.242188 872.542969 332.289062 873.015625 332.371094 C 879.46875 333.523438 880.324219 348.554688 880.171875 356.910156 C 879.957031 368.53125 874.078125 398.082031 864.6875 398.082031 " fill-opacity="1" fill-rule="nonzero"/></g></g><g clip-path="url(#a0b73ae1e3)"><g clip-path="url(#f51cb75667)"><path fill="#d69369" d="M 866.042969 371.09375 C 863.898438 371.09375 863.671875 366.085938 863.804688 363.964844 C 864.046875 360 865.707031 357.042969 865.707031 352.878906 L 865.707031 354.140625 C 865.808594 352.519531 867.230469 350.609375 869.011719 350.609375 C 869.171875 350.609375 869.332031 350.628906 869.5 350.65625 C 871.695312 351.097656 871.355469 353.746094 871.402344 355.65625 C 871.488281 358.90625 870.492188 367.65625 868.164062 369.917969 C 867.296875 370.746094 866.609375 371.09375 866.042969 371.09375 " fill-opacity="1" fill-rule="nonzero"/></g></g><g clip-path="url(#05f00823cb)"><g clip-path="url(#4b72f39b93)"><path fill="#f9ab7b" d="M 584.878906 337.355469 C 584.71875 334.050781 575.460938 327.492188 572.9375 326.242188 C 553.410156 316.578125 558.460938 356.816406 559.609375 365.640625 C 561.964844 383.8125 569.414062 404.730469 588.367188 411.164062 L 584.878906 337.355469 " fill-opacity="1" fill-rule="nonzero"/></g></g><g clip-path="url(#061905e5ec)"><g clip-path="url(#f5731f81b5)"><path fill="#d69369" d="M 578.617188 398.082031 C 569.214844 398.082031 563.339844 368.53125 563.121094 356.910156 C 562.972656 348.554688 563.828125 333.523438 570.28125 332.371094 C 570.75 332.289062 571.222656 332.242188 571.703125 332.242188 C 575.726562 332.242188 579.878906 335.3125 580.253906 342.882812 L 580.152344 342.894531 C 578.335938 336.609375 575.789062 333.464844 572.511719 333.464844 C 572.285156 333.464844 572.042969 333.484375 571.796875 333.511719 C 571.769531 333.511719 571.730469 333.511719 571.703125 333.511719 C 566.984375 333.511719 565.289062 341.714844 564.628906 347.90625 C 563.914062 354.667969 564.949219 361.761719 566.382812 368.46875 C 567.585938 374.089844 569.453125 379.636719 571.664062 384.5 C 574.59375 390.980469 578.078125 391.234375 582.261719 392.324219 C 583.289062 392.589844 583.882812 395.171875 582.976562 396.007812 C 581.453125 397.441406 579.992188 398.082031 578.617188 398.082031 " fill-opacity="1" fill-rule="nonzero"/></g></g><g clip-path="url(#4bf83fcc7e)"><g clip-path="url(#1de2ffc05c)"><path fill="#d69369" d="M 577.25 371.09375 C 576.695312 371.09375 576 370.746094 575.140625 369.917969 C 572.804688 367.65625 571.804688 358.90625 571.890625 355.65625 C 571.9375 353.746094 571.597656 351.097656 573.792969 350.65625 C 573.964844 350.628906 574.125 350.609375 574.285156 350.609375 C 576.0625 350.609375 577.484375 352.519531 577.597656 354.140625 L 577.597656 352.878906 C 577.597656 357.042969 579.246094 360 579.492188 363.964844 C 579.625 366.085938 579.398438 371.09375 577.25 371.09375 " fill-opacity="1" fill-rule="nonzero"/></g></g><g clip-path="url(#e052c08b1f)"><g clip-path="url(#6dad4408aa)"><path fill="#f9ab7b" d="M 900.574219 607.519531 C 849.429688 604.324219 785.613281 579.164062 781.46875 577.507812 L 717.777344 577.507812 L 658.800781 577.59375 C 658.800781 577.59375 592.445312 604.589844 539.566406 608.027344 C 539.566406 608.027344 414.515625 622.984375 416.917969 753.675781 L 1023.628906 753.675781 C 1026.332031 623.023438 900.574219 607.519531 900.574219 607.519531 " fill-opacity="1" fill-rule="nonzero"/><path fill="#393536" d="M 900.574219 607.519531 C 849.429688 604.324219 792.855469 579.25 788.710938 577.59375 L 720.273438 720.085938 L 651.839844 577.59375 C 651.839844 577.59375 592.445312 604.589844 539.566406 608.027344 C 539.566406 608.027344 414.515625 622.984375 416.917969 753.675781 L 1023.628906 753.675781 C 1026.332031 623.023438 900.574219 607.519531 900.574219 607.519531 " fill-opacity="1" fill-rule="nonzero"/></g></g><g clip-path="url(#6de1e90c38)"><g clip-path="url(#21aa4d6c97)"><path fill="#351f17" d="M 854.929688 371.09375 C 854.929688 371.09375 855.691406 332.871094 870.367188 326.242188 C 870.367188 326.242188 871.535156 322.292969 880.183594 324.761719 C 880.183594 324.761719 891.371094 228.367188 844.472656 170.070312 C 844.472656 170.070312 816.59375 134.578125 767.171875 133.304688 C 767.171875 133.304688 750.695312 95.609375 686.0625 103.210938 C 686.0625 103.210938 594.808594 115.5625 563.113281 205.863281 C 563.113281 205.863281 548.957031 268.625 563.113281 326.449219 C 563.113281 326.449219 588.367188 318.976562 583.429688 371.09375 L 588.367188 371.09375 L 596.078125 287.933594 C 596.078125 287.933594 591.003906 243.566406 616.359375 229.628906 C 616.359375 229.628906 644.230469 199.210938 696.195312 195.40625 C 696.195312 195.40625 715.203125 230.890625 778.566406 260.042969 C 778.566406 260.042969 765.898438 242.304688 769.703125 234.695312 C 769.703125 234.695312 783.644531 263.847656 812.796875 285.390625 C 812.796875 285.390625 802.652344 267.652344 805.1875 261.3125 C 805.1875 261.3125 837.109375 270.046875 847.007812 317.074219 L 849.542969 371.09375 L 854.929688 371.09375 " fill-opacity="1" fill-rule="nonzero"/></g></g></svg>